<?xml version="1.0" standalone="no"?>
<!DOCTYPE svg PUBLIC "-//W3C//DTD SVG 20010904//EN"
 "http://www.w3.org/TR/2001/REC-SVG-20010904/DTD/svg10.dtd">
<svg version="1.0" xmlns="http://www.w3.org/2000/svg"
 width="328.000000pt" height="328.000000pt" viewBox="0 0 328.000000 328.000000"
 preserveAspectRatio="xMidYMid meet">
<metadata>
Created by potrace 1.11, written by Peter Selinger 2001-2013
</metadata>
<g transform="translate(0.000000,328.000000) scale(0.100000,-0.100000)"
fill="#000000" stroke="none">
<path d="M535 2930 l-350 -350 358 0 357 0 0 350 c0 193 -3 350 -8 350 -4 0
-165 -157 -357 -350z"/>
<path d="M940 2792 l0 -487 230 -230 230 -230 0 495 0 495 -223 223 c-122 122
-226 222 -230 222 -4 0 -7 -219 -7 -488z"/>
<path d="M645 2040 l-250 -250 253 -253 252 -252 252 252 253 253 -250 250
c-137 137 -252 250 -255 250 -3 0 -118 -113 -255 -250z"/>
<path d="M370 1240 l0 -505 252 253 253 252 -253 252 -252 253 0 -505z"/>
<path d="M1688 938 l502 -503 502 503 503 502 -1005 0 -1005 0 503 -502z"/>
<path d="M1152 713 l3 -708 708 0 c389 -1 707 2 707 5 0 7 -1408 1410 -1415
1410 -3 0 -4 -318 -3 -707z"/>
<path d="M755 1050 l-350 -350 353 -353 352 -352 0 703 c0 386 -1 702 -3 702
-1 0 -160 -158 -352 -350z"/>
</g>
</svg>
