<svg viewBox="0 0 512 512" xmlns="http://www.w3.org/2000/svg"><path d="m354 64h-54v-2.574219c0-15.976562-12.996094-28.976562-28.976562-28.976562h-18.542969c-8.460938-19.433594-27.839844-32.449219-49.515625-32.449219h-1.929688c-21.675781 0-41.054687 13.015625-49.515625 32.449219h-18.542969c-15.980468 0-28.976562 13-28.976562 28.976562v2.574219h-54c-31.308594 0-50 14.953125-50 40v358c0 27.570312 22.429688 50 50 50h304c27.570312 0 50-22.429688 50-50v-226.332031c0-5.523438-4.476562-10-10-10s-10 4.476562-10 10v226.332031c0 16.542969-13.457031 30-30 30h-304c-16.542969 0-30-13.457031-30-30v-358c0-4.945312 0-20 30-20h54v14c0 5.523438 4.476562 10 10 10h176c5.523438 0 10-4.476562 10-10v-14h54c16.542969 0 30 13.457031 30 30v33.667969c0 5.523437 4.476562 10 10 10s10-4.476563 10-10v-33.667969c0-27.570312-22.429688-50-50-50zm-74 24h-156v-26.574219c0-4.949219 4.027344-8.976562 8.976562-8.976562h25.601563c4.515625 0 8.46875-3.023438 9.652344-7.378907 4.003906-14.761718 17.496093-25.070312 32.804687-25.070312h1.929688c15.308594 0 28.800781 10.308594 32.808594 25.070312 1.179687 4.355469 5.136718 7.378907 9.648437 7.378907h25.605469c4.949218 0 8.972656 4.027343 8.972656 8.976562zm0 0"/><path d="m394 179.511719c-2.628906 0-5.210938 1.058593-7.070312 2.917969-1.859376 1.871093-2.929688 4.441406-2.929688 7.070312 0 2.640625 1.070312 5.210938 2.929688 7.078125 1.859374 1.863281 4.441406 2.933594 7.070312 2.933594s5.210938-1.070313 7.070312-2.933594c1.859376-1.859375 2.929688-4.4375 2.929688-7.078125 0-2.628906-1.070312-5.210938-2.929688-7.070312-1.859374-1.859376-4.441406-2.917969-7.070312-2.917969zm0 0"/><path d="m502 322c-2.628906 0-5.210938 1.070312-7.070312 2.929688-1.859376 1.859374-2.929688 4.441406-2.929688 7.070312s1.070312 5.210938 2.929688 7.070312c1.859374 1.859376 4.441406 2.929688 7.070312 2.929688s5.210938-1.070312 7.070312-2.929688c1.859376-1.859374 2.929688-4.441406 2.929688-7.070312s-1.070312-5.210938-2.929688-7.070312c-1.859374-1.859376-4.441406-2.929688-7.070312-2.929688zm0 0"/><path d="m511.128906 185.421875-32-71.507813c-1.613281-3.597656-5.1875-5.914062-9.128906-5.914062s-7.515625 2.316406-9.128906 5.914062l-32 71.507813c-.574219 1.28125-.871094 2.675781-.871094 4.082031v298.621094c0 13.164062 10.710938 23.875 23.875 23.875h36.25c13.164062 0 23.875-10.710938 23.875-23.875v-112.457031c0-5.523438-4.476562-10-10-10s-10 4.476562-10 10v69.917969h-44v-246.082032h44v92.296875c0 5.523438 4.476562 10 10 10s10-4.476562 10-10v-102.296875c0-1.40625-.296875-2.800781-.871094-4.082031zm-41.128906-42.941406 16.570312 37.023437h-33.140624zm22 323.105469v22.539062c0 2.136719-1.738281 3.875-3.875 3.875h-36.25c-2.136719 0-3.875-1.738281-3.875-3.875v-22.539062zm0 0"/><path d="m117.667969 144c-23.160157 0-42 18.839844-42 42s18.839843 42 42 42c23.15625 0 42-18.839844 42-42s-18.84375-42-42-42zm0 64c-12.132813 0-22-9.867188-22-22s9.867187-22 22-22c12.128906 0 22 9.867188 22 22s-9.871094 22-22 22zm0 0"/><path d="m117.667969 264c-23.160157 0-42 18.839844-42 42s18.839843 42 42 42c23.15625 0 42-18.839844 42-42s-18.84375-42-42-42zm0 64c-12.132813 0-22-9.867188-22-22s9.867187-22 22-22c12.128906 0 22 9.867188 22 22s-9.871094 22-22 22zm0 0"/><path d="m117.667969 384c-23.160157 0-42 18.839844-42 42s18.839843 42 42 42c23.15625 0 42-18.839844 42-42s-18.84375-42-42-42zm0 64c-12.132813 0-22-9.867188-22-22s9.867187-22 22-22c12.128906 0 22 9.867188 22 22s-9.871094 22-22 22zm0 0"/><path d="m318.332031 208h-114.664062c-5.523438 0-10 4.476562-10 10s4.476562 10 10 10h114.667969c5.519531 0 10-4.476562 10-10s-4.480469-10-10.003907-10zm0 0"/><path d="m318.332031 160h-114.664062c-5.523438 0-10 4.476562-10 10s4.476562 10 10 10h114.667969c5.519531 0 10-4.476562 10-10s-4.480469-10-10.003907-10zm0 0"/><path d="m318.332031 328h-114.664062c-5.523438 0-10 4.476562-10 10s4.476562 10 10 10h114.667969c5.519531 0 10-4.476562 10-10s-4.480469-10-10.003907-10zm0 0"/><path d="m318.332031 280h-114.664062c-5.523438 0-10 4.476562-10 10s4.476562 10 10 10h114.667969c5.519531 0 10-4.476562 10-10s-4.480469-10-10.003907-10zm0 0"/><path d="m318.332031 448h-114.664062c-5.523438 0-10 4.476562-10 10s4.476562 10 10 10h114.667969c5.519531 0 10-4.476562 10-10s-4.480469-10-10.003907-10zm0 0"/><path d="m318.332031 400h-114.664062c-5.523438 0-10 4.476562-10 10s4.476562 10 10 10h114.667969c5.519531 0 10-4.476562 10-10s-4.480469-10-10.003907-10zm0 0"/></svg>