<?xml version="1.0" encoding="iso-8859-1"?>
<!-- Generator: Adobe Illustrator 19.0.0, SVG Export Plug-In . SVG Version: 6.00 Build 0)  -->
<svg version="1.1" id="Capa_1" xmlns="http://www.w3.org/2000/svg" xmlns:xlink="http://www.w3.org/1999/xlink" x="0px" y="0px"
	 viewBox="0 0 512 512" style="enable-background:new 0 0 512 512;" xml:space="preserve">
<g>
	<g>
		<path d="M423.484,494.93c-1.86-1.86-4.431-2.93-7.07-2.93c-2.63,0-5.21,1.07-7.07,2.93c-1.859,1.86-2.93,4.44-2.93,7.07
			s1.07,5.21,2.93,7.07c1.86,1.86,4.44,2.93,7.07,2.93s5.21-1.07,7.07-2.93c1.87-1.86,2.93-4.44,2.93-7.07
			S425.354,496.79,423.484,494.93z"/>
	</g>
</g>
<g>
	<g>
		<path d="M505.019,167.853c-6.035-8.807-15.149-14.677-25.663-16.531c-17.021-3.001-33.662,5.531-41.546,20.144V65.948
			c0-21.38-17.395-38.773-38.774-38.773c-6.993,0-13.552,1.87-19.223,5.122C376.72,13.991,360.763,0,341.59,0
			c-19.173,0-35.129,13.991-38.222,32.297c-5.671-3.252-12.23-5.122-19.223-5.122c-20.099,0-36.672,15.374-38.585,34.979
			c-5.587-3.124-12.017-4.913-18.86-4.913c-21.38,0-38.773,17.394-38.773,38.773c0,5.523,4.478,10,10,10c5.522,0,10-4.477,10-10
			c0-10.352,8.422-18.773,18.773-18.773c9.694,0,17.695,7.387,18.672,16.828v26.66c0,5.523,4.478,10,10,10c5.522,0,10-4.477,10-10
			v-54.78c0-10.352,8.422-18.773,18.773-18.773c9.694,0,17.695,7.387,18.672,16.828v77.799c0,0.459,0.102,3.783,0.102,3.783
			c0,5.523,4.478,10,10,10c5.522,0,10-4.477,10-10V65.948c0-0.895-0.042-1.781-0.102-2.661V38.773
			c0-10.352,8.422-18.773,18.773-18.773s18.773,8.422,18.773,18.773v24.514c-0.06,0.88-0.102,1.766-0.102,2.661v140.633
			c0,5.523,4.478,10,10,10c5.522,0,10-4.477,10-10l0.102-142.579c0.977-9.441,8.978-16.828,18.673-16.828
			c10.352,0,18.773,8.422,18.773,18.773V213.87c0,7.314,5.271,13.26,12.532,14.137c7.255,0.881,13.795-3.642,15.538-10.747
			l7.783-31.752c2.427-9.895,12.177-16.263,22.22-14.491c5.178,0.913,9.666,3.804,12.639,8.141
			c2.972,4.337,4.049,9.567,3.031,14.726l-15.066,76.403c-5.057,25.646-17.514,48.957-36.022,67.414l-31.107,31.019
			c-1.882,1.876-2.939,4.424-2.939,7.081V465c0,5.523,4.478,10,10,10c5.522,0,10-4.477,10-10v-85.048l28.169-28.088
			c21.335-21.275,35.693-48.146,41.523-77.707l15.066-76.403C513.241,187.279,511.054,176.66,505.019,167.853z"/>
	</g>
</g>
<g>
	<g>
		<path d="M296.592,309c-5.522,0-10,4.477-10,10v29.328c0,32.889-12.826,63.792-36.116,87.016l-18.949,18.895
			c-1.882,1.876-2.939,4.424-2.939,7.081V502c0,5.523,4.478,10,10,10c5.522,0,10-4.477,10-10v-36.529l16.01-15.964
			c27.081-27.003,41.995-62.936,41.995-101.178V319C306.592,313.477,302.115,309,296.592,309z"/>
	</g>
</g>
<g>
	<g>
		<path d="M303.663,276.43c-1.86-1.86-4.44-2.93-7.07-2.93s-5.21,1.07-7.069,2.93c-1.86,1.86-2.931,4.44-2.931,7.07
			s1.07,5.21,2.931,7.07c1.859,1.86,4.439,2.93,7.069,2.93s5.21-1.07,7.07-2.93c1.86-1.86,2.93-4.44,2.93-7.07
			S305.524,278.29,303.663,276.43z"/>
	</g>
</g>
<g>
	<g>
		<path d="M269.473,160.504c-6.247,0-12.134,1.558-17.304,4.295c-2.224-18.357-17.89-32.631-36.838-32.631
			c-6.403,0-12.432,1.63-17.695,4.497c-3.288-17.126-18.375-30.109-36.446-30.109c-18.071,0-33.159,12.983-36.446,30.109
			c-5.263-2.867-11.293-4.497-17.696-4.497c-20.467,0-37.118,16.651-37.118,37.119v97.303c-7.913-12.833-23.13-20.146-38.682-17.406
			c-10.063,1.774-18.786,7.394-24.563,15.823c-5.777,8.429-7.869,18.592-5.893,28.617l14.2,72.009
			c5.517,27.974,19.104,53.401,39.294,73.534l26.379,26.304V502c0,5.523,4.478,10,10,10c5.522,0,10-4.477,10-10v-40.68
			c0-2.657-1.058-5.205-2.939-7.081l-29.317-29.235c-17.364-17.315-29.05-39.183-33.794-63.241l-14.2-72.009
			c-0.928-4.709,0.055-9.483,2.768-13.442c2.714-3.959,6.812-6.599,11.538-7.432c9.16-1.616,18.068,4.195,20.283,13.228
			l7.336,29.926c1.711,6.982,8.123,11.429,15.271,10.563c7.138-0.862,12.318-6.706,12.318-13.895V169.286
			c0-9.439,7.68-17.119,17.119-17.119c8.832,0,16.122,6.725,17.022,15.324v73.285c0,5.523,4.478,10,10,10
			c0.016,0,0.032-0.002,0.048-0.002s0.032,0.002,0.048,0.002c5.522,0,10-4.477,10-10v-71.491c0-0.85-0.039-1.691-0.096-2.527
			v-23.085c0-9.439,7.68-17.119,17.119-17.119c9.439,0,17.119,7.679,17.119,17.119v23.085c-0.057,0.836-0.096,1.677-0.096,2.527
			v71.491c0,5.523,4.478,10,10,10c0.016,0,0.032-0.002,0.048-0.002s0.032,0.002,0.048,0.002c5.522,0,10-4.477,10-10v-73.285
			c0.9-8.599,8.189-15.324,17.022-15.324c9.439,0,17.119,7.679,17.119,17.119l-0.095,71.491c0,5.523,4.478,10,10,10
			c0.016,0,0.032-0.002,0.048-0.002c0.016,0,0.032,0.002,0.048,0.002c5.522,0,10-4.477,10-10v-44.949
			c0.9-8.599,8.19-15.324,17.023-15.324c9.439,0,17.119,7.679,17.119,17.119v46.711c0,5.523,4.478,10,10,10c5.522,0,10-4.477,10-10
			v-46.711C306.592,177.156,289.941,160.504,269.473,160.504z"/>
	</g>
</g>
<g>
	<g>
		<path d="M148.876,55.683L96.148,2.955c-3.905-3.905-10.235-3.905-14.143,0c-3.905,3.905-3.905,10.237,0,14.142l52.729,52.728
			c1.953,1.953,4.512,2.929,7.071,2.929s5.118-0.977,7.071-2.929C152.781,65.92,152.781,59.588,148.876,55.683z"/>
	</g>
</g>
<g>
	<g>
		<path d="M113.503,82.481H89.101c-5.522,0-10,4.477-10,10s4.478,10,10,10h24.402c5.522,0,10-4.477,10-10
			S119.025,82.481,113.503,82.481z"/>
	</g>
</g>
<g>
	<g>
		<path d="M171.074,0c-5.522,0-10,4.477-10,10v25.218c0,5.523,4.477,10,10,10c5.522,0,10-4.477,10-10V10
			C181.074,4.477,176.596,0,171.074,0z"/>
	</g>
</g>
<g>
</g>
<g>
</g>
<g>
</g>
<g>
</g>
<g>
</g>
<g>
</g>
<g>
</g>
<g>
</g>
<g>
</g>
<g>
</g>
<g>
</g>
<g>
</g>
<g>
</g>
<g>
</g>
<g>
</g>
</svg>
