<svg id="Layer_3" enable-background="new 0 0 64 64" height="512" viewBox="0 0 64 64" width="512" xmlns="http://www.w3.org/2000/svg"><path d="m54 56c-2.202 0-4.271.857-5.828 2.414l-.758.758c-1.179 1.179-2.747 1.828-4.414 1.828s-3.235-.649-4.414-1.828l-.758-.758c-1.557-1.557-3.626-2.414-5.828-2.414s-4.271.857-5.828 2.414l-.758.758c-1.179 1.179-2.747 1.828-4.414 1.828s-3.235-.649-4.414-1.828l-.758-.758c-1.557-1.557-3.626-2.414-5.828-2.414s-4.271.857-5.828 2.414l-2.879 2.879 1.414 1.414 2.879-2.879c1.179-1.179 2.747-1.828 4.414-1.828s3.235.649 4.414 1.828l.758.758c1.557 1.557 3.626 2.414 5.828 2.414s4.271-.857 5.828-2.414l.758-.758c1.179-1.179 2.747-1.828 4.414-1.828s3.235.649 4.414 1.828l.758.758c1.557 1.557 3.626 2.414 5.828 2.414s4.271-.857 5.828-2.414l.758-.758c1.179-1.179 2.747-1.828 4.414-1.828s3.235.649 4.414 1.828l2.879 2.879 1.414-1.414-2.879-2.879c-1.557-1.557-3.626-2.414-5.828-2.414z"/><path d="m31 1h2v14h-2z"/><path d="m63 41v-2h-10.051c-.527-11.113-9.707-20-20.949-20s-20.422 8.887-20.949 20h-10.051v2h10.04c.122 2.615.713 5.143 1.757 7.495-.886-.319-1.827-.495-2.797-.495-2.202 0-4.271.857-5.828 2.414l-2.879 2.879 1.414 1.414 2.879-2.879c1.179-1.179 2.747-1.828 4.414-1.828s3.235.649 4.414 1.828l.758.758c1.557 1.557 3.626 2.414 5.828 2.414s4.271-.857 5.828-2.414l.758-.758c1.179-1.179 2.747-1.828 4.414-1.828s3.235.649 4.414 1.828l.758.758c1.557 1.557 3.626 2.414 5.828 2.414s4.271-.857 5.828-2.414l.758-.758c1.179-1.179 2.747-1.828 4.414-1.828s3.235.649 4.414 1.828l2.879 2.879 1.414-1.414-2.879-2.879c-1.557-1.557-3.626-2.414-5.828-2.414-.97 0-1.911.176-2.796.495 1.044-2.352 1.635-4.88 1.757-7.495zm-24.414 10.172-.758-.758c-1.557-1.557-3.626-2.414-5.828-2.414s-4.271.857-5.828 2.414l-.758.758c-1.179 1.179-2.747 1.828-4.414 1.828-1.603 0-3.11-.606-4.272-1.699-2.438-3.288-3.728-7.193-3.728-11.301 0-10.477 8.523-19 19-19s19 8.523 19 19c0 4.108-1.291 8.013-3.729 11.302-1.162 1.093-2.669 1.698-4.271 1.698-1.667 0-3.235-.649-4.414-1.828z"/><path d="m7.5 7.308h2v18.385h-2z" transform="matrix(.707 -.707 .707 .707 -9.178 10.843)"/><path d="m46.308 15.5h18.385v2h-18.385z" transform="matrix(.707 -.707 .707 .707 4.588 44.077)"/><path d="m20 9.469h2v8.062h-2z" transform="matrix(.868 -.496 .496 .868 -3.931 12.198)"/><path d="m38.969 12.5h8.062v2h-8.062z" transform="matrix(.496 -.868 .868 .496 9.945 44.137)"/><path d="m5 25.228h2.001v8.544h-2.001z" transform="matrix(.351 -.936 .936 .351 -23.727 24.75)"/><path d="m53.728 28.5h8.544v2.001h-8.544z" transform="matrix(.936 -.351 .351 .936 -6.665 22.243)"/></svg>