<svg viewBox="0 -62 512 512" xmlns="http://www.w3.org/2000/svg">
  <path d="M335 171l-113-62c-7-3-14-3-21 0-6 4-10 11-10 18v123a21 21 0 0021 21l10-3 113-60a21 21 0 000-37zm-114 64v-92l84 46zm0 0"/>
  <path d="M508 92v-1c0-4-5-40-22-59a83 83 0 00-58-26h-1c-68-5-170-6-171-6S153 1 84 6h-1-2c-11 1-34 4-55 27C9 51 4 87 4 91v1c0 1-4 42-4 83v38c0 41 4 82 4 84 0 4 5 40 22 59 20 21 44 24 57 25l5 1h2c39 4 161 6 166 6h1c1 0 103-1 171-6h3c11-1 34-4 55-26 17-19 22-55 22-59 0-2 4-43 4-84v-38c0-41-4-82-4-83zm-26 121c0 38-3 77-4 81-1 10-6 33-14 42a49 49 0 01-36 16h-3a3222 3222 0 01-332 0h-6c-11-2-27-4-39-16v-1c-8-8-13-29-14-41-1-3-4-42-4-81v-38c0-38 3-77 4-81 1-11 6-32 14-41 13-15 27-16 37-17l2-1a3233 3233 0 01337 0l3 1c9 1 24 3 37 16v1c8 8 13 30 14 41 1 3 4 43 4 81zm0 0"/>
</svg>