<svg xmlns="http://www.w3.org/2000/svg" viewBox="0 0 511.3 511.3">
  <path d="M508 94c-2-2-7-3-10-2l-17 6c10-12 17-25 21-38 2-4 1-7-1-10-3-3-7-3-11-2-24 11-45 19-62 25h-2c-14-8-48-26-72-26-62 1-111 53-111 117v3c-90-17-140-43-194-100l-8-8-6 10c-29 56-8 108 26 142-16-2-26-7-36-15-3-3-8-4-12-1-4 2-5 7-5 11 13 41 43 74 76 94-16 0-29-2-42-11-3-1-8-1-12 1s-5 7-3 12c15 44 46 67 94 73-25 15-58 27-109 28-5 0-10 4-11 8-2 5 0 10 3 13 31 25 101 40 187 40 152 0 277-136 277-304v-2c20-10 35-28 43-53 1-4 0-8-3-11zm-52 50l-5 1v15c0 158-117 287-260 287-79 0-132-13-161-27 60-5 95-24 122-45l21-15h-26c-49 0-79-14-97-47 16 5 32 5 50 4l21-1 3-17c-33-10-72-39-91-79 17 8 36 10 54 10h26l-21-16c-18-13-72-59-46-125 55 55 108 80 204 97l10 2v-24c0-54 42-98 94-99 20-1 53 17 62 22 6 3 11 4 16 2l46-17c-8 13-18 25-32 36-4 3-4 8-3 12 2 5 7 6 12 5l33-12c-6 12-15 25-32 31z"/>
</svg>
