<svg xmlns="http://www.w3.org/2000/svg" viewBox="0 0 512 512">
  <path d="M512 224L453 42c-2-5-8-8-13-6L7 177c-5 1-8 7-7 12l28 86v192c0 5 5 10 10 10h456c5 0 10-5 10-10V276c0-6-5-10-10-10h-79l90-29c5-2 8-8 7-13zm-28 62v171H48V286h56v111a10 10 0 0020 0V286h360zm-133-20H46l-23-73 52-18 20 62a10 10 0 0019-7l-20-61L437 58l52 163-138 45z"/>
  <path d="M421 102c-1-5-7-8-12-7l-261 85a10 10 0 006 19l261-85c5-1 8-7 6-12zM377 167l50-16a10 10 0 00-6-19l-50 16a10 10 0 006 19zM419 213a10 10 0 0013 6l15-5a10 10 0 00-6-19l-15 5c-6 2-9 7-7 13zM391 211l-16 6a10 10 0 006 19l16-6a10 10 0 00-6-19zM251 187l-91 29a10 10 0 006 19l91-29a10 10 0 00-6-19zM114 420c-6 0-10 5-10 10v4a10 10 0 0020 0v-4c0-5-5-10-10-10zM162 323c0 5 4 10 10 10h274a10 10 0 000-20H172c-6 0-10 4-10 10zM446 351h-52a10 10 0 000 20h52a10 10 0 000-20zM446 417h-17a10 10 0 000 20h17a10 10 0 000-20zM393 417h-17a10 10 0 000 20h17a10 10 0 000-20zM268 351h-96a10 10 0 000 20h96a10 10 0 000-20z"/>
</svg>
