<svg xmlns="http://www.w3.org/2000/svg" viewBox="0 0 512 512">
  <path d="M452 237c-18-8-50-9-52-9a8 8 0 000 15 130 130 0 0148 8 8 8 0 004-14z"/>
  <path d="M489 344l-31-9c-1 0-2-1-2-3v-10a56 56 0 0024-46v-14l3-6c3-7 5-14 5-21v-39c0-4-3-8-8-8h-72c-26 0-47 22-47 48 0 7 1 13 4 18l4 8v12c0 19 9 37 24 47v11c0 2 0 3-6 4l-16 5-43-16-2-6-14-15v-24l4-4c18-17 28-40 28-64v-20c5-11 8-24 8-36V76c0-5-4-8-8-8H232c-39 0-72 32-72 72v16c0 12 3 25 8 36v17c0 28 13 53 32 70v25l-13 15-3 6-46 17-9 4-7-3c21-10 28-23 29-24v-6c-6-11-7-31-7-47l-1-15c-2-36-30-63-63-63s-61 27-64 63l-1 15c0 16-1 36-6 47v6c0 1 7 14 29 24l-21 10c-10 5-17 16-17 28v55a8 8 0 0015 0v-55c0-6 4-12 9-15l25-12 9 8a31 31 0 0043 0l9-8 8 4c-4 6-6 13-6 21v57a8 8 0 0015 0v-57c0-11 7-20 16-23l49-18 20 30a15 15 0 0024 3l13-13v78a8 8 0 0015 0v-78l12 13a15 15 0 0024-3l20-30 49 18c9 3 16 12 16 23v57a8 8 0 0015 0v-57c0-11-4-20-11-28h2l7-3 19 19v69a8 8 0 0015 0v-69l19-19 3 2 31 8c7 2 12 9 12 16v62a8 8 0 0015 0v-62c0-14-9-26-23-30zM48 331c-14-5-21-12-24-16l4-18c4 10 11 19 20 25v9zm43 20c-6 6-16 6-23 0l-7-7 2-7v-8a55 55 0 0033 0v8l2 7-7 7zm-11-34c-23 0-41-19-41-41a8 8 0 00-9-7v-2l1-14c1-14 6-26 15-35a46 46 0 0167 0c9 9 14 21 15 35l1 14v1c-8-13-21-22-37-27-15-5-28-5-29-5l-5 3-13 14a8 8 0 1011 10l11-11c9 0 41 4 53 30-3 20-20 35-40 35zm31 14v-9c9-6 16-15 20-25l4 18c-3 4-10 11-24 16zm72-122v-18-4c-5-10-8-20-8-31v-16c0-32 26-57 57-57h105v73c0 11-3 21-7 31l-1 4v21a72 72 0 01-29 58 72 72 0 01-49 14c-38-2-68-35-68-75zm43 151h-1l-23-35 7-8 35 24-18 19zm30-29l-41-28v-14a84 84 0 0041 11c15 0 28-4 41-10v13l-41 28zm31 29l-19-19 35-24 8 8-24 35zm137-6l-17-17 1-5v-3a53 53 0 0033 0v8l-17 17zm29-49c-8 8-19 12-30 12-22-1-39-20-39-43v-14l-1-3-5-10-2-11c0-18 14-33 32-33h65v32c0 5-1 10-3 14l-4 8-1 3v16c0 11-4 21-12 29z"/>
  <path d="M472 381c-4 0-7 3-7 7v48a8 8 0 0015 0v-48c0-4-3-7-8-7zM40 391c-5 0-8 3-8 7v38a8 8 0 0015 0v-38c0-4-3-7-7-7zM318 158c-29-28-88-22-112-19-8 1-14 8-14 16v17a8 8 0 0015 0v-17l1-1c10-1 29-4 49-2 23 1 40 7 50 17a7 7 0 1011-11zM168 397c-4 0-8 3-8 7v32a8 8 0 0015 0v-32c0-4-3-7-7-7zM344 397c-4 0-7 3-7 7v32a8 8 0 0015 0v-32c0-4-4-7-8-7z"/>
</svg>
