<svg xmlns="http://www.w3.org/2000/svg" viewBox="0 0 512 512">
  <path d="M467.8 88.1a10 10 0 00-14.2 0 10 10 0 000 14.1c1.9 1.9 4.4 3 7 3a10 10 0 007-17zM238 323.6a10 10 0 00-14 0 10 10 0 000 14.2c1.8 1.8 4.4 2.9 7 2.9 2.6 0 5.2-1 7-3a10 10 0 000-14z"/>
  <path d="M492 121.3a10 10 0 10-17.4 9.9 134.3 134.3 0 01-21.8 161l-7.6 7.6a37.4 37.4 0 00-8.5-13.2L333.9 183.8c6.7-3.3 13-7.7 18.4-13.1L372 151a10 10 0 00-14.1-14.2L338 156.5a48.7 48.7 0 01-34.6 14.4H264a10 10 0 00-7 3l-30.2 30a23 23 0 01-32.5-32.4l68.8-68.9C305.3 60.6 371 51.3 423 80.1a10 10 0 009.7-17.5 155.1 155.1 0 00-95.1-17.9C307 48.7 279 61.6 256 82c-28.2-25-64-38.6-102-38.6-41.2 0-79.9 16-109 45S0 156.3 0 197.4a153 153 0 0045.1 109L49 310a10 10 0 002.1 1.6 37.5 37.5 0 0039 34.7v1.5a37.4 37.4 0 0039.2 37.7v1.5a37.4 37.4 0 0039.2 37.6 37.6 37.6 0 0064.3 28.2l14-14 18.8 18.9a37.4 37.4 0 0053.3 0 37.6 37.6 0 0011-28.5h1.9a37.6 37.6 0 0037.6-39.2h1.6a37.4 37.4 0 0037.6-39.1h1.5a37.4 37.4 0 0034.8-23.3 10 10 0 002.7-1.9l19.4-19.4a154.4 154.4 0 0025-185zm-403.4 205a17.6 17.6 0 01-17.7-17.6c0-4.7 1.8-9.2 5.2-12.5L93.3 279a17.6 17.6 0 0125 0 17.7 17.7 0 010 25l-17.2 17.2a17.6 17.6 0 01-12.5 5.2zm26.6 34a17.6 17.6 0 010-25l17.3-17.2a17.6 17.6 0 0125 0 17.7 17.7 0 010 25l-17.3 17.2a17.7 17.7 0 01-25 0zm39.2 39.2a17.6 17.6 0 010-25l17.2-17.2a17.6 17.6 0 0125 0 17.7 17.7 0 010 25l-17.2 17.2a17.7 17.7 0 01-25 0zm81.4 22l-17.2 17.2a17.6 17.6 0 01-25 0 17.7 17.7 0 010-25l17.2-17.3a17.6 17.6 0 0125 0 17.6 17.6 0 010 25zm186.7-95.8a17.6 17.6 0 01-25 0L356 284.1 316.7 245a10 10 0 00-14.1 14.1l80.8 80.8a17.7 17.7 0 01-25 25L277.6 284a10 10 0 00-14.2 14.2l39.2 39.1 41.6 41.6a17.7 17.7 0 01-25 25l-41.6-41.6a10 10 0 00-2.6-1.8l-11.9-11.9a10 10 0 00-14 14.1l55.6 55.7a17.7 17.7 0 01-25 25l-21.2-21.1a37.7 37.7 0 00-36.7-51.1 37.6 37.6 0 00-39.2-39.2 37.6 37.6 0 00-39.1-39.1 37.6 37.6 0 00-64.3-28.2L61.9 282c-2.1 2.2-4 4.6-5.5 7.1A133.1 133.1 0 0120 197.3c0-35.8 14-69.5 39.3-94.8 25.3-25.3 59-39.2 94.7-39.2a133 133 0 0187.7 32.6l-61.5 61.4a42.7 42.7 0 000 60.8 42.8 42.8 0 0060.8 0l27.2-27.2h35.3c2.9 0 5.8-.2 8.6-.6l110.4 110.4a17.7 17.7 0 010 25z"/>
</svg>
