<svg viewBox="0 0 512 512" xmlns="http://www.w3.org/2000/svg">
  <path d="M354 64h-54v-3c0-16-13-29-29-29h-19c-8-19-27-32-49-32h-2c-22 0-41 13-49 32h-19c-16 0-29 13-29 29v3H50C19 64 0 79 0 104v358c0 28 22 50 50 50h304c28 0 50-22 50-50V236a10 10 0 10-20 0v226c0 17-13 30-30 30H50c-17 0-30-13-30-30V104c0-5 0-20 30-20h54v14c0 6 4 10 10 10h176c6 0 10-4 10-10V84h54c17 0 30 13 30 30v34a10 10 0 1020 0v-34c0-28-22-50-50-50zm-74 24H124V61c0-5 4-9 9-9h26c4 0 8-3 9-7 4-15 18-25 33-25h2c15 0 29 10 33 25 1 4 5 7 9 7h26c5 0 9 4 9 9zm0 0"/>
  <path d="M394 180a10 10 0 00-10 10 10 10 0 0010 10 10 10 0 0010-10c0-3-1-6-3-8l-7-2zm0 0M502 322a10 10 0 00-10 10 10 10 0 0010 10 10 10 0 0010-10 10 10 0 00-10-10zm0 0"/>
  <path d="M511 185l-32-71c-1-4-5-6-9-6s-8 2-9 6l-32 71-1 5v298c0 13 11 24 24 24h36c13 0 24-11 24-24V376a10 10 0 10-20 0v70h-44V200h44v92a10 10 0 1020 0V190l-1-5zm-41-43l17 38h-34zm22 324v22c0 2-2 4-4 4h-36c-2 0-4-2-4-4v-22zm0 0M118 144a42 42 0 100 84 42 42 0 000-84zm0 64a22 22 0 110-44 22 22 0 010 44zm0 0M118 264a42 42 0 100 84 42 42 0 000-84zm0 64a22 22 0 110-44 22 22 0 010 44zm0 0M118 384a42 42 0 100 84 42 42 0 000-84zm0 64a22 22 0 110-44 22 22 0 010 44zm0 0M318 208H204a10 10 0 100 20h114a10 10 0 100-20zm0 0M318 160H204a10 10 0 100 20h114a10 10 0 100-20zm0 0M318 328H204a10 10 0 100 20h114a10 10 0 100-20zm0 0M318 280H204a10 10 0 100 20h114a10 10 0 100-20zm0 0M318 448H204a10 10 0 100 20h114a10 10 0 100-20zm0 0M318 400H204a10 10 0 100 20h114a10 10 0 100-20zm0 0"/>
</svg>
