<svg height="569pt" viewBox="0 0 770 770" width="569pt" xmlns="http://www.w3.org/2000/svg">
  <path d="M1.5 52.2l38 66.5a9.5 9.5 0 006 4.5l35.4 8.9 121.5 121.5 13.5-13.4L92.4 116.8a9.5 9.5 0 00-4.4-2.5l-34-8.6-32.4-56.6 27.7-27.7L106 53.7l8.5 34a9.5 9.5 0 002.5 4.5l123.5 123.4 13.4-13.4L132.4 80.7l-8.9-35.5a9.5 9.5 0 00-4.5-5.9l-66.5-38a9.5 9.5 0 00-11.4 1.5l-38 38c-3 3-3.7 7.7-1.6 11.4zm0 0M396.3 187.1l-208.9 209-13.4-13.5 208.9-208.9zm0 0M150.8 403.4a9.5 9.5 0 00-8-4.6h-57a9.5 9.5 0 00-8.2 4.6L49.1 451a9.5 9.5 0 000 9.8l28.5 47.5a9.5 9.5 0 008.1 4.6h57c3.3 0 6.4-1.8 8.1-4.6l28.5-47.5c1.8-3 1.8-6.8 0-9.8zm-13.5 90.4H91.1l-22.8-38 22.8-38h46.2l22.8 38zm0 0"/>
  <path d="M456 228A113.6 113.6 0 00566.6 86.3a9.5 9.5 0 00-16-4.4l-59 59-47-15.6L429 78.6l59.2-59.2a9.5 9.5 0 00-4.5-15.9 113.6 113.6 0 00-139.2 132.7l-208 208a114 114 0 1089.4 89.4l49.8-49.8 21.8 21.7a9.5 9.5 0 0013.4 0l4.8-4.7a10.6 10.6 0 0115 15l-4.7 4.8a9.5 9.5 0 000 13.4l113.3 113.3A76.6 76.6 0 10548 439.4l-.5-.5-113.3-113.2a9.5 9.5 0 00-13.4 0l-4.8 4.7a10.6 10.6 0 11-15-15l4.7-4.8a9.5 9.5 0 000-13.4L384 275.4l49.8-49.8c7.3 1.5 14.8 2.3 22.3 2.3zm37.4 322.8c-7 0-13.8-1.3-20.2-3.7l74.1-74.2a57.6 57.6 0 01-54 77.9zM385.8 304a29.6 29.6 0 0041.8 41.7L534 452.4c1.2 1.1 2.3 2.3 3.3 3.6l-81.2 81.2-3.6-3.3L346 427.2a29.6 29.6 0 00-41.8-41.7L289 370.3l81.6-81.5zm38.3-95.5L208.7 423.8a9.5 9.5 0 00-2.5 9 95.6 95.6 0 11-69-69c3.2.8 6.6-.2 9-2.5l215.4-215.4a9.5 9.5 0 002.5-9 94.5 94.5 0 0197.4-117.7l-50.1 50A9.5 9.5 0 00409 79l19 57c1 2.8 3.1 5 6 6l57 19c3.4 1 7.1.2 9.7-2.3l50-50.1c.2 1.8.2 3.6.2 5.4a94.5 94.5 0 01-117.9 92c-3.2-.8-6.7.1-9 2.5zm0 0"/>
  <path d="M491.3 477.6L477.8 491l-95-95 13.5-13.4zm0 0"/>
</svg>
