<svg xmlns="http://www.w3.org/2000/svg" viewBox="0 0 512 512">
  <path d="M423.5 495a10 10 0 00-14.2 0 10 10 0 000 14 10 10 0 0014.2 0 10 10 0 000-14zM505 167.9a39.5 39.5 0 00-67.2 3.6V65.9a38.8 38.8 0 00-58-33.6 38.8 38.8 0 00-76.4 0 38.8 38.8 0 00-57.8 29.9A38.8 38.8 0 00188 96a10 10 0 0020 0 18.8 18.8 0 0137.4-2v26.6a10 10 0 0020 0V66a18.8 18.8 0 0137.4-1.9v77.8l.1 3.8a10 10 0 0020 0V65.9 38.8a18.8 18.8 0 0137.5 0v24.5l-.1 2.6v140.7a10 10 0 0020 0V64a18.8 18.8 0 0137.5 2v147.9a14 14 0 0012.5 14.1 14 14 0 0015.6-10.7l7.8-31.8a19.4 19.4 0 0137.9 8.4l-15.1 76.4c-5 25.6-17.5 49-36 67.4l-31.1 31a10 10 0 00-3 7.1V465a10 10 0 0020 0v-85l28.2-28.1a150.5 150.5 0 0041.5-77.7l15-76.4c2.1-10.5 0-21.1-6-30zM296.6 309a10 10 0 00-10 10v29.3a122 122 0 01-36.1 87l-19 19a10 10 0 00-3 7V502a10 10 0 0020 0v-36.5l16.1-16c27-27 42-63 42-101.2V319a10 10 0 00-10-10z"/>
  <path d="M303.7 276.4a10 10 0 00-14.2 0 10 10 0 000 14.2 10 10 0 0014.2 0 10 10 0 000-14.2zM269.5 160.5c-6.3 0-12.2 1.6-17.3 4.3a37.2 37.2 0 00-54.6-28.1 37.2 37.2 0 00-72.9 0A37.2 37.2 0 0070 169.3v97.3A37.8 37.8 0 006.7 265a37.4 37.4 0 00-6 28.6l14.3 72c5.5 28 19.1 53.4 39.3 73.6l26.4 26.3V502a10 10 0 0020 0v-40.7c0-2.6-1-5.2-3-7L68.4 425a122.5 122.5 0 01-33.8-63.2l-14.2-72a17.6 17.6 0 0114.3-21c9.2-1.5 18 4.3 20.3 13.3l7.3 30c1.8 7 8.2 11.4 15.3 10.5 7.1-.9 12.3-6.7 12.3-13.9V169.3a17.1 17.1 0 0134.2-1.8v73.3a10 10 0 0020.1 0v-71.5l-.1-2.5v-23.1a17.1 17.1 0 0134.2 0v97.1a10 10 0 0020.1 0v-73.3a17.1 17.1 0 0134 1.8v71.5a10 10 0 0020.1 0v-45a17.1 17.1 0 0134 1.8v46.7a10 10 0 0020 0v-46.7a37.2 37.2 0 00-37-37.1zM148.9 55.7L96 3a10 10 0 00-14 14.1l52.6 52.7a9.9 9.9 0 0014.1 0c4-3.9 4-10.2 0-14.1zM113.5 82.5H89.1a10 10 0 000 20h24.4a10 10 0 000-20zM171 0a10 10 0 00-10 10v25.2a10 10 0 1020 0V10a10 10 0 00-10-10z"/>
</svg>
