<svg xmlns="http://www.w3.org/2000/svg" viewBox="0 0 383.19 383.19">
  <path d="M226.38 123.66a8.88 8.88 0 00-6.16-1.92h-33.6l31.6-35.28 2.96-3.28 1.52-1.92c.53-.74.96-1.55 1.28-2.4a8 8 0 00.56-2.88 6 6 0 00-2.96-5.76 17.84 17.84 0 00-8.4-1.6H173.9a8.64 8.64 0 00-5.84 1.76 5.92 5.92 0 00-2.08 4.72c0 2.72.91 4.37 2.72 4.96 2.6.74 5.3 1.06 8 .96h25.6a86.75 86.75 0 01-4.16 5.28l-6.56 7.36-8.88 9.6-10.32 11.44c-3.57 4-5.92 6.66-7.04 8a7.52 7.52 0 00.72 10.32 10.88 10.88 0 007.36 2.16h46.72a9.12 9.12 0 006.24-1.84 6.08 6.08 0 002.08-4.72 6.4 6.4 0 00-2.08-4.96zM297.18 164.54a7.04 7.04 0 00-4.96-1.52h-26.88l25.2-28.16 2.4-2.64 1.52-1.84a8.4 8.4 0 001.04-1.92c.3-.74.47-1.52.48-2.32a4.8 4.8 0 00-2.32-4.64c-2.1-.97-4.4-1.4-6.72-1.28h-31.68a6.96 6.96 0 00-4.64 1.44 4.72 4.72 0 00-1.68 3.76c0 2.13.72 3.47 2.16 4 2.09.58 4.25.82 6.4.72h20.48c-.8 1.2-1.92 2.56-3.36 4.24l-5.28 5.92-6.88 8-8 9.12c-2.88 3.2-4.77 5.39-5.68 6.56a6 6 0 00.56 8 8.64 8.64 0 005.84 1.68h37.12a7.28 7.28 0 004.96-1.44 4.88 4.88 0 001.6-3.76 5.12 5.12 0 00-1.68-3.92zM381.1 119.58a8.88 8.88 0 00-6.16-1.92H341.1l31.6-35.28 2.96-3.28 1.92-2.32c.53-.74.96-1.55 1.28-2.4a8 8 0 00.56-2.88 6 6 0 00-2.96-5.76 17.85 17.85 0 00-8.4-1.6h-39.68a8.64 8.64 0 00-5.84 1.76 5.92 5.92 0 00-2.08 4.72c0 2.72.91 4.37 2.72 4.96 2.6.74 5.3 1.06 8 .96h25.6a86.75 86.75 0 01-4.16 5.28l-6.64 7.52-8.64 9.6-10.32 11.44c-3.57 4-5.92 6.66-7.04 8a7.52 7.52 0 00.72 10.32 10.88 10.88 0 007.36 2.16h46.64a9.12 9.12 0 006.4-1.6 6.08 6.08 0 002.08-4.72 6.4 6.4 0 00-2.08-4.96z"/>
  <path d="M353.5 254.3a8 8 0 00-8.8-1.84c-86.7 35.9-186.1-5.3-221.99-92a169.92 169.92 0 013.03-136.88 8 8 0 00-10.32-10.8C20.36 51.83-25.04 160.54 14 255.6s147.77 140.46 242.83 101.41a186.08 186.08 0 0098.12-93.84 8 8 0 00-1.45-8.88zM186.22 355.1c-93.97-.02-170.14-76.21-170.13-170.2a170.16 170.16 0 0187.33-148.6 183.42 183.42 0 00-9.6 58.8c0 102.81 83.36 186.15 186.17 186.15 17.23 0 34.38-2.4 50.95-7.11a170.8 170.8 0 01-144.72 80.96z"/>
</svg>
