<svg height="512pt" viewBox="0 0 770 770" width="512pt" xmlns="http://www.w3.org/2000/svg">
  <path d="M413.9 85.3a12.8 12.8 0 100 25.6 12.8 12.8 0 000-25.6zm0 0"/>
  <path d="M449.8 2.5a8.5 8.5 0 00-12.1 0l-68.3 68.3a8.5 8.5 0 00-2.5 6v59.7c0 4.7 3.9 8.6 8.6 8.6h59.7c2.3 0 4.4-1 6-2.5l68.3-68.3a8.5 8.5 0 000-12zM431.7 128H384V80.3l59.7-59.7 47.7 47.7zm0 0M8.5 290.1h25.6v1.1a33 33 0 0025.6 32.1v77.8c0 4.7 3.9 8.5 8.6 8.5h51.2c4.7 0 8.5-3.8 8.5-8.5v-34.2h8.6c14 0 25.5-11.4 25.5-25.5v-18a33 33 0 0023.6-21l143.6 63.8a8.5 8.5 0 0012-7.8V153.6a8.5 8.5 0 00-12-7.8l-143.6 63.9a33 33 0 00-31-22H67.2a33 33 0 00-33 33v1.2H8.4a8.5 8.5 0 00-8.5 8.5v51.2c0 4.7 3.8 8.5 8.5 8.5zM290.1 182l34.2-15.2v178.6L290 330zm-102.4 45.5l85.4-38v133.2l-85.4-38zm-76.8 131v34.1H76.8v-68.2h34.1zm34.2-17c0 4.7-3.8 8.5-8.5 8.5H128v-25.6h17zm-93.9-59.8v-60.8a16 16 0 0116-16h87.5a16 16 0 0116 16v70.4a16 16 0 01-16 16H67.2a16 16 0 01-16-16zm-34.1-42.7h17v34.2h-17zm0 0M425 335.5a8.5 8.5 0 00-12 0L352.6 396a8.5 8.5 0 000 12l84.5 84.5a8.5 8.5 0 0012 0l60.4-60.3a8.5 8.5 0 000-12zm56.1 80.3L433 412l-3.7-48.2zm-38 58.5L370.7 402l41.2-41.2 4.6 60a8.5 8.5 0 007.9 7.8l60 4.6zm0 0"/>
  <path d="M230.4 162.1a59.6 59.6 0 0047.8-95.4l52.1-52.1-12-12.1L266 54.6a59.7 59.7 0 10-35.7 107.5zm0-102.4a42.7 42.7 0 110 85.4 42.7 42.7 0 010-85.4zm0 0M367 298.7h42.6v8.5c0 4.7 3.8 8.5 8.5 8.5h68.3c4.7 0 8.5-3.8 8.5-8.5v-42.5c0-14.5-9.2-27.4-22.8-32.2a34.1 34.1 0 10-39.6 0c-5.5 2-10.5 5.3-14.3 9.7-3-3.4-6.6-6.2-10.7-8.2a25.6 25.6 0 10-30 0 34 34 0 00-19.1 30.5v25.6c0 4.7 3.8 8.6 8.5 8.6zm85.3-111a17 17 0 110 34.2 17 17 0 010-34.2zm-25.6 102.4v-25.4c0-9.5 7.7-17.2 17.2-17.2h16.7c9.5 0 17.3 7.7 17.3 17.2v34h-51.2zm-34.2-85.3a8.5 8.5 0 110 17 8.5 8.5 0 010-17zm-17 59.7a17 17 0 1134.1 0v17.1h-34.1zm0 0M239 349.9h-34.2c-2.3 0-4.4.9-6 2.5l-51.2 51.2a8.5 8.5 0 000 12l93.8 93.9a8.5 8.5 0 0012.1 0l68.3-68.3a8.5 8.5 0 000-12L245 352.4a8.5 8.5 0 00-6-2.5zm8.5 141.5l-81.8-81.8 42.6-42.7h27.1l68.3 68.3zm0 0"/>
  <path d="M198.8 420.6l34.1-34.1 12 12-34 34.2zm0 0M224.4 446.2l34.1-34.1 12 12-34 34.2zm0 0"/>
</svg>
