<svg xmlns="http://www.w3.org/2000/svg" viewBox="0 0 512 512">
  <path d="M486.4 59.7H25.6A25.6 25.6 0 000 85.3v341.4a25.6 25.6 0 0025.6 25.6h460.8a25.6 25.6 0 0025.6-25.6V85.3a25.6 25.6 0 00-25.6-25.6zm8.5 367c0 4.7-3.8 8.5-8.5 8.5H25.6a8.5 8.5 0 01-8.5-8.5V85.3c0-4.7 3.8-8.5 8.5-8.5h460.8c4.7 0 8.5 3.8 8.5 8.5v341.4z"/>
  <path d="M470 93.9c-2.2-.2-4.4.5-6.2 2L267 261.2a17 17 0 01-22 0L48.2 96a8.5 8.5 0 00-11 13L234 274.3a34 34 0 0044 0l196.8-165.4a8.5 8.5 0 00-4.7-15zM164.1 273.1c-3-.6-6.1.4-8.2 2.7l-119.5 128A8.5 8.5 0 1049 415.4l119.5-128a8.5 8.5 0 00-4.3-14.3zM356.1 275.8a8.5 8.5 0 10-12.5 11.6l119.5 128a8.5 8.5 0 0012.5-11.6L356 275.8z"/>
</svg>
