<svg xmlns="http://www.w3.org/2000/svg" viewBox="0 0 297.7 297.7">
  <path d="M40.2 77a37.1 37.1 0 0137-37 6 6 0 000-12c-27 0-49 22-49 49a6 6 0 0012 0z"/>
  <path d="M77.3 12a6 6 0 000-12C34.8 0 .2 34.6.2 77a6 6 0 0012 0c0-35.8 29.2-65 65-65zM220.4 28a6 6 0 000 12 37.1 37.1 0 0137.1 37 6 6 0 0012 0c0-27-22-49-49-49z"/>
  <path d="M220.4 0a6 6 0 000 12c36 0 65.1 29.2 65.1 65a6 6 0 0012 0c0-42.4-34.6-77-77-77zM227.5 80.6c-1 0-1.8 0-2.8.2a23 23 0 00-11.2 4.3v-5.2A25.6 25.6 0 00188.1 54c-5.2 0-10.2 1.6-14.4 4.5A25.5 25.5 0 00148.4 35a25.2 25.2 0 00-25.3 23.8 25 25 0 00-14.4-4.6 26 26 0 00-26.2 25.4v86L77 160a24.9 24.9 0 00-35.3.1 25.3 25.3 0 00-.6 35l53.9 71 1.1 15.3c.7 9.1 8.5 16.3 17.6 16.3h98.5c8.8 0 16.3-6.7 17.4-15.4l2.4-18.2a138 138 0 0016.3-48.2c3-17.3 4.2-37.8 4.2-61v-49a25 25 0 00-25-25.3zm-9.8 200.1c-.3 2.8-2.7 5-5.5 5l-98.5.2c-3 0-5.4-2.4-5.6-5.3l-1.4-18.8-56.4-74.5a13.3 13.3 0 019.4-22.6c3.4 0 6.8 1.3 9.3 3.9l15.9 15c1.2 1.1 2.3 1.7 3.8 1.7 3.2 0 5.8-2.5 5.8-6.2V79.5a13.8 13.8 0 0115.3-13.3c6.8.8 11.7 6.8 11.7 13.7v68.6c0 3.6 3 6.5 6.5 6.5 3.6 0 6.5-3 6.5-6.6V60.2A13.6 13.6 0 01149.7 47c6.8.8 11.8 6.9 11.8 13.7v87.8c0 3.6 3 6.6 6.6 6.6 3.5 0 6.4-3 6.4-6.5v-69a13.5 13.5 0 0115.2-13.3c6.8.8 11.8 6.8 11.8 13.7v68.4c0 3.7 3 6.6 6.7 6.6h.1c3.4 0 6.2-2.7 6.2-6.1v-42.4c0-6.9 5-13 11.8-13.7l1.2-.1c7.4 0 13 6 13 13.4v49c0 41.8-4.7 80.4-19.7 103.8-.5.7-.6 1.5-.7 2.4l-2.4 19.5z"/>
</svg>
