<svg height="512" viewBox="0 0 64 64" width="512" xmlns="http://www.w3.org/2000/svg">
  <path d="M54 56c-2.2 0-4.27.86-5.83 2.41l-.76.76a6.2 6.2 0 01-8.82 0l-.76-.76C36.27 56.86 34.2 56 32 56s-4.27.86-5.83 2.41l-.76.76a6.2 6.2 0 01-8.82 0l-.76-.76C14.27 56.86 12.2 56 10 56s-4.27.86-5.83 2.41L1.3 61.3l1.42 1.42 2.88-2.88a6.2 6.2 0 018.82 0l.76.76C16.73 62.14 18.8 63 21 63s4.27-.86 5.83-2.41l.76-.76a6.2 6.2 0 018.82 0l.76.76C38.73 62.14 40.8 63 43 63s4.27-.86 5.83-2.41l.76-.76a6.2 6.2 0 018.82 0l2.88 2.88 1.42-1.42-2.88-2.88A8.19 8.19 0 0054 56zM31 1h2v14h-2zM63 41v-2H52.95c-.53-11.11-9.7-20-20.95-20s-20.42 8.89-20.95 20H1v2h10.04a20.8 20.8 0 001.76 7.5 8.24 8.24 0 00-8.63 1.91L1.3 53.3l1.42 1.42 2.88-2.88a6.2 6.2 0 018.82 0l.76.76C16.73 54.14 18.8 55 21 55s4.27-.86 5.83-2.41l.76-.76a6.2 6.2 0 018.82 0l.76.76C38.73 54.14 40.8 55 43 55s4.27-.86 5.83-2.41l.76-.76a6.2 6.2 0 018.82 0l2.88 2.88 1.42-1.42-2.88-2.88a8.19 8.19 0 00-8.63-1.91 20.8 20.8 0 001.76-7.5zM38.59 51.17l-.76-.76C36.27 48.86 34.2 48 32 48s-4.27.86-5.83 2.41l-.76.76a6.2 6.2 0 01-8.68.13A19.02 19.02 0 0132 21a19.02 19.02 0 0115.27 30.3 6.2 6.2 0 01-8.68-.13zM1.3 10.7l1.4-1.4 13 13-1.41 1.4zM48.29 22.3l13-13 1.4 1.41-12.99 13zM18.13 10.5l1.73-1 4 7-1.74 1zM40.12 16.51l4-7 1.74 1-4 7z"/>
  <path d="M1.64 28.93l.7-1.88 8 3-.7 1.87zM53.63 30.06l8-3 .7 1.87-8 3z"/>
</svg>
