<svg xmlns="http://www.w3.org/2000/svg" viewBox="0 0 512 512">
  <path d="M0 290.13h512v17.07H0zM324.27 341.33h102.4v17.07h-102.4zM162.13 341.33H307.2v17.07H162.13zM85.33 341.33h59.73v17.07H85.33zM230.4 392.53h162.13v17.07H230.4zM119.47 392.53h93.87v17.07h-93.87zM196.27 443.73h170.67v17.07H196.27zM145.07 443.73h34.13v17.07h-34.13zM187.73 494.93h136.53V512H187.73z"/>
  <path d="M420.32 159.1c-39.4-90.6-145.18-132.25-235.8-92.84-90.61 39.42-132.26 145.2-92.85 235.8l15.65-6.8a161.07 161.07 0 01-2.18-124.07c15.86-40.3 46.47-72 86.19-89.28 81.97-35.66 177.68 2.02 213.35 84a162.6 162.6 0 010 129.34l15.65 6.82a179.74 179.74 0 00-.01-142.97zM34.13 13.56A49.4 49.4 0 000 0v17.07c8.71 0 16.9 3.38 23.07 9.53l5.03 5.03a8.51 8.51 0 0012.07 0l5.02-5.02a32.46 32.46 0 0123.08-9.54V0C55.47 0 43.4 4.8 34.13 13.56zM59.73 73.3A49.4 49.4 0 0025.6 59.72V76.8c8.71 0 16.9 3.39 23.07 9.53l5.03 5.04a8.51 8.51 0 0012.07 0l5.02-5.03a32.46 32.46 0 0123.08-9.54V59.73c-12.8 0-24.86 4.8-34.14 13.56zM119.47 30.63a49.4 49.4 0 00-34.14-13.56v17.06c8.72 0 16.9 3.4 23.07 9.54l5.04 5.03a8.51 8.51 0 0012.06 0l5.03-5.03a32.46 32.46 0 0123.07-9.54V17.07c-12.8 0-24.86 4.8-34.13 13.56z"/>
</svg>
