<svg height="496pt" viewBox="0 0 770 770" width="496pt" xmlns="http://www.w3.org/2000/svg">
  <path d="M120 32h80v16h-80zm0 0M144 96h-16v88h-16v-64H96v64H80v-40H64v40H48v16h112v-16h-16zm0 0M48 216h16v16H48zm0 0M80 216h80v16H80zm0 0"/>
  <path d="M472 328c13 0 24-11 24-24V181c0-16-12-30-27-32l-29-4v-13c10-9 16-22 16-36V80a48 48 0 00-96 0v16c0 14 6 27 16 36v13l-45 6-27-31V80h16V32h-85L203 0h-86L85 32H0v48h16v192H0v48h80v22L27 480H0v16h496v-16h-32V327l8 1zm-56-99l-8 8-8-8 7-53h2zM376 80a32 32 0 0164 0v16a32 32 0 01-64 0zm32 64c6 0 11-1 16-3v9c-2 3-7 10-16 10s-14-7-16-10v-9c5 2 10 3 16 3zm-28 17c2 3 6 7 12 10l-8 64 24 24 24-24-8-64c6-3 10-7 12-10l30 4c8 1 14 8 14 16v123a8 8 0 01-16 0V192h-16v80h-80v-80h-48c-3 0-5-1-7-3l-55-69-2-6v-1a9 9 0 0115-6l54 62zM136 352v128H76l49-128zm16 0h16v128h-16zm32 0h11l49 128h-60zm28 0h15l49 128h-15zm28-10v-22h80v-48h-16v-70c4 4 10 6 16 6h32v272h-59zm128-54h32v192h-32zM16 48h75l32-32h74l32 32h75v16H16zm16 32h256v22l-5-6a25 25 0 00-43 17v1c0 6 2 11 5 16l43 53v89H32zM16 288h288v16H16zm208 32v16H96v-16zM93 352h15L59 480H44zm323 128V288h32v192zm0 0"/>
  <path d="M224 160a48 48 0 100 96 48 48 0 000-96zm-8 17v23h-23c3-11 12-20 23-23zm-23 39h23v23c-11-3-20-12-23-23zm39 23v-62a32 32 0 010 62zm0 0"/>
</svg>
