<svg xmlns="http://www.w3.org/2000/svg" viewBox="0 0 512 512">
  <circle cx="10.1" cy="500.4" r="10.1"/>
  <circle cx="267" cy="245.3" r="10"/>
  <path d="M398.5 118a42.4 42.4 0 00-60.5 0 42.8 42.8 0 1060.5 0zm-14.2 46.3a22.7 22.7 0 11-32-32.1 22.7 22.7 0 0132 32zM125.4 411.4A10 10 0 00112 416l-12 24a33.1 33.1 0 01-27.2 18.2l-14 1c-2.3.1-3.8-1-4.5-1.8s-2-2.2-1.8-4.6l1-13.9a33.1 33.1 0 0118.2-27.3l24-12a10 10 0 10-9-18l-24 12a53.3 53.3 0 00-29.2 44l-1 13.8a26 26 0 0027.8 27.8l13.9-1A53.3 53.3 0 00118 449l12-24c2.4-5 .4-11-4.6-13.4z"/>
  <path d="M505 8.2c-4.6-4.7-11.1-7-17.7-6.7l-9.4.6a303 303 0 00-215.2 111l-22 27.1-57.6-1.7h-.3c-45.6 0-88.6 17.8-120.9 50.1l-59 59a10 10 0 006.6 17.1l124.9 6.4-5.1 6.3a10 10 0 00-1 11.1c2 3.6 4 7.2 6.1 10.6l-29.6 35.2a10 10 0 00-1.4 10.8 131.5 131.5 0 0062.8 62.7 10 10 0 0010.6-1.3c6.4-5.1 13.7-11.3 20.8-17.2l15.1-12.6c3 1.8 5.9 3.5 8.8 5a10 10 0 0011-.8l6.8-5.3 6.5 125.4a10 10 0 0017.1 6.5l59-59c32.3-32.2 50-75.2 50-120.8v-55l23.3-18a301.7 301.7 0 00116.5-224l.3-4.8c.3-6.6-2.2-13-7-17.7zM33.2 245.8l43-43a150 150 0 01106.6-44.2l42 1.3-74.6 92-117-6zm151.7 128c-5.3 4.4-10.6 9-15.6 13a110.8 110.8 0 01-44.8-44.7l21.7-25.7a232.8 232.8 0 0049.2 48.7l-10.5 8.8zm167-46.1c0 40.3-15.6 78.2-44.1 106.7l-43 43-6-116.8 93.2-72.3v39.4zm139.9-298a281.7 281.7 0 01-108.8 209L225.5 361c-13.1-7.6-25.3-16.6-36.4-26.8l53-53a10 10 0 00-14.1-14.3l-53 53a212.6 212.6 0 01-25.8-35l129.1-159a282.8 282.8 0 01201-103.6l9.3-.6a3.2 3.2 0 013.3 3.3l-.2 4.9z"/>
</svg>
