<svg xmlns="http://www.w3.org/2000/svg" viewBox="0 0 512 512">
  <path d="M288.7 244.3L268 231.5l5.8-23.6a7.5 7.5 0 00-10.8-8.4l-21.4 11.6-17.5-16.9a7.5 7.5 0 00-12.7 5.2l-.7 24.3-23.3 6.8a7.5 7.5 0 00-1.9 13.6l20.7 12.7-5.8 23.6a7.5 7.5 0 0010.8 8.4l21.4-11.6 17.5 16.9a7.5 7.5 0 0012.7-5.2l.7-24.3 23.3-6.7a7.5 7.5 0 001.9-13.6zm-34.7 7.4a7.5 7.5 0 00-5.4 7l-.3 12.8-9.2-9a7.5 7.5 0 00-8.8-1.1l-11.3 6 3.1-12.3c.8-3.2-.6-6.5-3.3-8.2l-11-6.7 12.3-3.6a7.5 7.5 0 005.5-7l.3-12.8 9.2 9c2.4 2.2 6 2.7 8.8 1.1l11.3-6-3.1 12.3c-.8 3.2.5 6.5 3.3 8.2l11 6.7-12.4 3.6zM168.4 211L95 186a7.5 7.5 0 10-4.9 14.2l73.5 25a7.5 7.5 0 104.8-14.2zM223.5 164.2L195.8 69a7.5 7.5 0 00-14.4 4.2l27.7 95.2a7.5 7.5 0 0014.4-4.2zM354.6 92.5c-3.3-2.6-8-2-10.5 1.3l-63.9 82.4a7.5 7.5 0 1011.9 9.2l63.8-82.4c2.5-3.3 2-8-1.3-10.5zM271.5 89.8c-4-.9-8 1.7-9 5.7L243.3 182a7.5 7.5 0 1014.6 3.3L277 98.8c1-4-1.6-8-5.6-9zM194 184.3l-38-42.7a7.5 7.5 0 00-11.2 10l38 42.7a7.5 7.5 0 0010.5.6 7.5 7.5 0 00.6-10.6zM169 249.5c-.4-4-4-7.2-8.1-6.8l-43.2 3.4a7.5 7.5 0 001.2 15l43.2-3.5c4.1-.3 7.2-4 6.9-8zM198.1 20.6a23.6 23.6 0 10-4.7 17.4c3.8-5 5.5-11.2 4.7-17.4zm-16.6 8.1a8.5 8.5 0 01-12 1.6 8.5 8.5 0 01-1.5-12 8.5 8.5 0 0113.5 10.4zM69 174a23.4 23.4 0 00-26.3-20.3A23.4 23.4 0 0022.4 180a23.4 23.4 0 0026.3 20.4A23.4 23.4 0 0069 174.1zm-16.5 8.3a8.5 8.5 0 01-12 1.5 8.5 8.5 0 01-1.5-12 8.5 8.5 0 0112-1.5 8.5 8.5 0 011.5 12zM393.8 41.8a23.4 23.4 0 00-33 4.2 23.4 23.4 0 004.2 33 23.4 23.4 0 0033-4.2c8-10.3 6.1-25.1-4.2-33zm-7.6 23.8A8.5 8.5 0 11372.7 55a8.5 8.5 0 0113.5 10.5zM329 367.2l-42.7-64.8a7.5 7.5 0 00-12.5 8.2l42.7 64.8a7.5 7.5 0 1012.5-8.2zM417 240.3l-99-3a7.5 7.5 0 00-.5 15l99 3h.3a7.5 7.5 0 00.2-15zM378 172.3a7.5 7.5 0 00-10.2-3.3L289 209.3a7.5 7.5 0 006.8 13.3l79-40.2a7.5 7.5 0 003.2-10.1zM356.6 297l-50.8-26a7.5 7.5 0 00-6.8 13.3l50.8 26a7.5 7.5 0 0010-3.2c2-3.7.5-8.2-3.2-10.1zM265.1 360.2l-7.5-42.6a7.5 7.5 0 00-14.8 2.5l7.5 42.7a7.5 7.5 0 1014.8-2.6zM480.7 230.7a23.4 23.4 0 00-33 4.2 23.4 23.4 0 004.2 33 23.4 23.4 0 0033-4.2c8-10.2 6-25-4.2-33zm-7.7 23.8a8.5 8.5 0 01-12 1.6 8.5 8.5 0 01-1.4-12 8.5 8.5 0 0112-1.5 8.5 8.5 0 011.4 12zM364.3 394a23.6 23.6 0 10-28.8 37.3 23.6 23.6 0 0028.8-37.2zm-7.6 23.9a8.5 8.5 0 01-12 1.5 8.5 8.5 0 1112-1.5zM186 298.7a7.5 7.5 0 00-10.6.2c-3.7 3.8-91.8 95.5-133 203a7.5 7.5 0 0014 5.3c40.1-104.5 128.9-197 129.8-197.9 2.9-3 2.8-7.7-.2-10.6z"/>
</svg>
