<svg xmlns="http://www.w3.org/2000/svg" viewBox="0 0 58 58">
  <path d="M43 5c-1-3-3-4-5-4a1 1 0 100 2 3 3 0 010 6 1 1 0 100 2c2 0 4-2 5-4h13v9H2V7h17a1 1 0 100-2h-2a3 3 0 113 4 1 1 0 100 2 5 5 0 10-5-6H0v53h58V5H43zm13 51H2V18h54v38z"/>
  <path d="M26 3a3 3 0 010 6 1 1 0 100 2 5 5 0 000-10 1 1 0 100 2z"/>
  <path d="M32 3a3 3 0 010 6 1 1 0 100 2 5 5 0 000-10 1 1 0 100 2z"/>
  <circle cx="22" cy="24.5" r="1"/>
  <circle cx="29" cy="24.5" r="1"/>
  <circle cx="36" cy="24.5" r="1"/>
  <circle cx="43" cy="24.5" r="1"/>
  <circle cx="50" cy="24.5" r="1"/>
  <circle cx="8" cy="32.5" r="1"/>
  <circle cx="15" cy="32.5" r="1"/>
  <circle cx="22" cy="32.5" r="1"/>
  <circle cx="29" cy="32.5" r="1"/>
  <circle cx="36" cy="32.5" r="1"/>
  <circle cx="43" cy="32.5" r="1"/>
  <circle cx="50" cy="32.5" r="1"/>
  <circle cx="8" cy="39.5" r="1"/>
  <circle cx="15" cy="39.5" r="1"/>
  <circle cx="22" cy="39.5" r="1"/>
  <circle cx="29" cy="39.5" r="1"/>
  <circle cx="36" cy="39.5" r="1"/>
  <circle cx="43" cy="39.5" r="1"/>
  <circle cx="50" cy="39.5" r="1"/>
  <circle cx="8" cy="47.5" r="1"/>
  <circle cx="15" cy="47.5" r="1"/>
  <circle cx="22" cy="47.5" r="1"/>
  <circle cx="29" cy="47.5" r="1"/>
  <circle cx="36" cy="47.5" r="1"/>
</svg>
