<svg xmlns="http://www.w3.org/2000/svg" viewBox="0 0 58.15 58.15">
  <path d="M40.08 29.15h-7.15a4 4 0 00-2.85-2.85V16.14a1 1 0 10-2 0V26.3a4 4 0 104.85 4.86h7.15a1 1 0 100-2zm-11 3a2 2 0 110-4 2 2 0 010 4z"/>
  <path d="M50.19 9.76l4.1 4.1a1 1 0 001.4 0A8.13 8.13 0 0044.22 2.38a1 1 0 000 1.4l4.56 4.57-1.7 1.7a26.89 26.89 0 00-36 0l-1.7-1.7 4.57-4.56a1 1 0 000-1.42A8.13 8.13 0 002.46 13.87a1 1 0 001.4 0l4.1-4.1 1.68 1.68a26.9 26.9 0 00-7.56 18.71c0 9.9 5.35 18.57 13.32 23.27l-3.03 3.03a1 1 0 101.41 1.41l3.45-3.45a26.83 26.83 0 0023.69 0l3.45 3.45a1 1 0 001.41 0 1 1 0 000-1.41l-3.02-3.03a27.01 27.01 0 0013.32-23.27 26.9 26.9 0 00-7.57-18.71l1.68-1.68zm4.1-5.97a6.13 6.13 0 01.64 7.9L46.4 3.13a6.13 6.13 0 017.9.65zm-51.07 7.9a6.13 6.13 0 018.54-8.55l-8.54 8.54zm25.86 43.46c-13.79 0-25-11.21-25-25s11.21-25 25-25 25 11.22 25 25-11.22 25-25 25z"/>
  <path d="M29.08 10.03a1 1 0 001-1v-1a1 1 0 10-2 0v1a1 1 0 001 1zM29.08 50.03a1 1 0 00-1 1v1a1 1 0 102 0v-1a1 1 0 00-1-1zM50.08 31.03h1a1 1 0 100-2h-1a1 1 0 100 2zM8.08 29.03h-1a1 1 0 100 2h1a1 1 0 100-2zM43.93 13.77l-.71.7a1 1 0 101.41 1.42l.71-.7a1 1 0 10-1.41-1.42zM13.52 44.17l-.7.71a1 1 0 101.4 1.41l.71-.7a1 1 0 10-1.41-1.42zM44.63 44.17a1 1 0 10-1.41 1.42l.7.7a1 1 0 001.42 0 1 1 0 000-1.4l-.7-.72zM14.23 13.77a1 1 0 10-1.42 1.41l.71.7a1 1 0 001.41 0 1 1 0 000-1.4l-.7-.71z"/>
</svg>
