<svg xmlns="http://www.w3.org/2000/svg" viewBox="0 0 397.4 397.4">
  <path d="M173.6 97.8l-22-22.2a7.3 7.3 0 10-10.2 10.2l21.9 22.2a7.3 7.3 0 0010.3-10.2zM359 76.8a7.3 7.3 0 00-11 0l-22.1 21.8A7.3 7.3 0 10336 109L358 87c3.2-2.5 3.6-7.1 1-10.2zM227.3 72.2l-.2-.6-8-30a7.2 7.2 0 10-14 3.6l8 30a7.2 7.2 0 0014.2-3zM326.7 227.1l-4.2-4 1.2-2.1a83 83 0 00-42.2-116.3l-.2-.2a83 83 0 00-103 36 94.3 94.3 0 00-119.6 91.1v3.8a63.2 63.2 0 004 126.2H271a78.8 78.8 0 0055.8-134.5zm-101.4-109a68.4 68.4 0 0185.4 96.1v.6a78.8 78.8 0 00-66.1-6 94.2 94.2 0 00-23.9-42.8c8.1-15 26.1-21.6 42-15.4a7.2 7.2 0 005.4-13.5 48 48 0 00-58.6 19.1 94.5 94.5 0 00-17.6-10.4 68.4 68.4 0 0133.4-27.8zM286 345.2c-5 1.2-10 1.8-15 1.7H63a48.7 48.7 0 01-34.5-83 48.5 48.5 0 0134.3-14.2H66.3a7.2 7.2 0 007.6-8.6l-.4-4.6v-5a79.8 79.8 0 01158.4-11.8 7.2 7.2 0 0010.4 5.5 64.3 64.3 0 1143.8 120zM397 145.4a7.2 7.2 0 00-8.3-5l-30.1 8a7.2 7.2 0 103.6 14l30-8c4-1.1 6-5.2 4.9-9zM392 216.2l-30-8.2a7.3 7.3 0 10-4 14l30 8.1a7.3 7.3 0 104-14zM289.8 36.7a7.3 7.3 0 00-9 5l-8.2 30a7.2 7.2 0 005 9 7.2 7.2 0 009.1-5l8-30a7.3 7.3 0 00-5-9z"/>
</svg>
